<svg xmlns="http://www.w3.org/2000/svg" viewBox="0 0 696.2 119.5" width="696" height="120"><g transform="translate(14 21.359999999999992) scale(3.2)" fill="#ffffff"><path d="M12 3.2a6.2 6.2 0 0 1 6.2 6.2v3.1l1.9 3.4a1.1 1.1 0 0 1-1 1.6H4.9a1.1 1.1 0 0 1-1-1.6l1.9-3.4V9.4A6.2 6.2 0 0 1 12 3.2z"/><circle cx="12" cy="20.2" r="1.9"/></g><g transform="translate(14 21.359999999999992) scale(3.2)" fill="#ffffff"><circle cx="18.8" cy="5.2" r="3.2"/></g><g transform="translate(102.77000000000001 103.76) scale(0.11 -0.11)"><g fill="#ffffff"><path d="M595 0 381 278H262V0H73V750H510Q594 750 657.0 720.5Q720 691 755.0 637.5Q790 584 790 513Q790 425 736.0 365.0Q682 305 590 285L814 0ZM485 606H262V420H485Q539 420 569.5 444.5Q600 469 600 513Q600 557 569.5 581.5Q539 606 485 606Z" transform="translate(0 0)"/><path d="M387 -16Q285 -16 204.5 22.0Q124 60 78.0 128.0Q32 196 32 287Q32 376 76.0 443.5Q120 511 197.0 548.5Q274 586 373 586Q473 586 545.0 542.0Q617 498 656.0 418.0Q695 338 695 230H232Q252 178 304.5 150.0Q357 122 437 122Q501 122 564.5 139.5Q628 157 680 189V68Q622 29 547.0 6.5Q472 -16 387 -16ZM376 452Q317 452 277.5 423.5Q238 395 225 347H519Q505 397 468.0 424.5Q431 452 376 452Z" transform="translate(840 0)"/><path d="M726 237Q718 161 671.0 104.5Q624 48 549.0 16.0Q474 -16 381 -16Q277 -16 198.5 22.0Q120 60 76.0 128.0Q32 196 32 285Q32 374 76.0 442.0Q120 510 198.5 548.0Q277 586 381 586Q474 586 548.5 554.5Q623 523 670.5 466.0Q718 409 726 333H541Q530 387 486.5 417.0Q443 447 381 447Q307 447 263.0 404.5Q219 362 219 285Q219 208 263.0 166.0Q307 124 381 124Q443 124 486.5 154.5Q530 185 541 237Z" transform="translate(1568 0)"/><path d="M392 -16Q284 -16 203.0 22.0Q122 60 77.0 127.5Q32 195 32 285Q32 375 77.0 442.5Q122 510 203.0 548.0Q284 586 392 586Q500 586 581.5 548.0Q663 510 708.0 442.5Q753 375 753 285Q753 195 708.0 127.5Q663 60 581.5 22.0Q500 -16 392 -16ZM392 124Q473 124 519.0 167.0Q565 210 565 285Q565 360 519.0 403.5Q473 447 392 447Q312 447 265.5 403.5Q219 360 219 285Q219 210 265.5 167.0Q312 124 392 124Z" transform="translate(2320 0)"/><path d="M33 570H221L246 418Q272 492 322.0 539.0Q372 586 455 586Q491 586 527 578V418Q500 424 473.5 427.0Q447 430 425 430Q377 430 338.5 410.5Q300 391 277.5 349.0Q255 307 255 240V0H69V381Z" transform="translate(3105 0)"/><path d="M33 570H221L246 418Q272 492 322.0 539.0Q372 586 455 586Q491 586 527 578V418Q500 424 473.5 427.0Q447 430 425 430Q377 430 338.5 410.5Q300 391 277.5 349.0Q255 307 255 240V0H69V381Z" transform="translate(3647 0)"/></g><g fill="#ffffff" transform="translate(4189 0)"><path d="M578 0 563 122Q522 57 458.5 20.5Q395 -16 317 -16Q233 -16 169.5 22.0Q106 60 70.0 127.5Q34 195 34 285Q34 375 70.0 442.5Q106 510 169.5 548.0Q233 586 317 586Q395 586 458.5 550.0Q522 514 564 450L578 570H771L736 285L771 0ZM222 285Q222 216 263.5 171.5Q305 127 371 127Q437 127 491.0 171.5Q545 216 569 285Q545 354 491.0 398.5Q437 443 371 443Q327 443 293.5 422.5Q260 402 241.0 366.5Q222 331 222 285Z" transform="translate(0 0)"/><path d="M60 578 152 559 245 578V0H60ZM153 630Q103 630 72.5 655.5Q42 681 42 723Q42 766 72.5 791.0Q103 816 153 816Q202 816 232.5 791.0Q263 766 263 723Q263 681 232.5 655.5Q202 630 153 630Z" transform="translate(816 0)"/></g></g></svg>